# xmcd
#
# Track frame offsets:
#	150
#	15717
#	32339
#	42926
#	58027
#	68514
#	83063
#	92867
#	108109
#	127474
#	138645
#	153414
#
# Disc length: 2209 seconds
#
# Revision: 0
# Processed by: cddbd v1.5.1PL0 Copyright (c) Steve Scherf et al.
# Submitted via: audiograbber 1.82.02
#
DISCID=9b089f0c
DTITLE=Country Sisters - All The Gold In California
DYEAR=1900
DGENRE=Country
TTITLE0=White Line
TTITLE1=Blanket OnThe Ground
TTITLE2=All The Gold In California
TTITLE3=Wayfaring Stranger
TTITLE4=Down Down Down
TTITLE5=Jole Blon'
TTITLE6=Texas Fiddele Song
TTITLE7=Cotton Fields
TTITLE8=Rose Of Cimarron
TTITLE9=Jambalaya
TTITLE10=Detroit City
TTITLE11=Texas When I Die
EXTD=
EXTT0=
EXTT1=
EXTT2=
EXTT3=
EXTT4=
EXTT5=
EXTT6=
EXTT7=
EXTT8=
EXTT9=
EXTT10=
EXTT11=
PLAYORDER=
